<?xml version="1.0" encoding="utf-8"?>
<!-- Generator: Adobe Illustrator 19.0.0, SVG Export Plug-In . SVG Version: 6.00 Build 0)  -->
<svg version="1.1" id="Calque_1" xmlns="http://www.w3.org/2000/svg" xmlns:xlink="http://www.w3.org/1999/xlink" x="0px" y="0px"
	 viewBox="0 0 549.6 554.7" style="enable-background:new 0 0 549.6 554.7;" xml:space="preserve">
<style type="text/css">
	.st0{fill:#030416;}
	.st1{fill:#00FFE6;}
</style>
<path id="XMLID_130_" class="st0" d="M55.7,61v437h0.6h436.4V61.6V61H55.7z M376.7,178v204h-204v-0.3V178h203.9H376.7z"/>
<polygon id="XMLID_158_" class="st0" points="55.7,61 172.7,178 376.6,178 492.7,61.6 492.7,61 "/>
<polygon id="XMLID_175_" class="st0" points="172.7,382 172.7,381.7 56.3,498 492.7,498 376.7,382 "/>
<path id="XMLID_1_" class="st1" d="M19,554.7c-6.5,0-10.6-2.3-13.6-5.4c-10.2-10.2-12-31.7,51.4-114.5
	C100,378.4,162.6,308.5,233,238.1c70.4-70.4,140.3-133,196.7-176.2C512.5-1.5,534,0.3,544.2,10.5c10.2,10.2,12,31.7-51.4,114.5
	C449.6,181.5,387,251.4,316.6,321.8c-70.4,70.4-140.3,133-196.7,176.2C62,542.3,34.1,554.7,19,554.7z M529.5,25.2
	c-5.8,0.5-28.6,6.3-95.3,58.3C379.8,125.9,313.3,185.8,247,252.1C180.7,318.5,120.8,385,78.3,439.4c-52,66.7-57.8,89.6-58.3,95.3
	c5.8-0.5,28.6-6.3,95.3-58.3c54.4-42.4,120.9-102.3,187.2-168.7c66.3-66.3,126.2-132.8,168.7-187.2
	C523.3,53.8,529.1,30.9,529.5,25.2z"/>
<path id="XMLID_19_" class="st1" d="M549.6,535.7c0,6.5-2.3,10.6-5.4,13.6c-10.2,10.2-31.7,12-114.5-51.4
	C373.2,454.7,303.3,392.2,233,321.8C162.6,251.4,100,181.5,56.7,125C-6.7,42.2-4.8,20.7,5.4,10.5c10.2-10.2,31.7-12,114.5,51.4
	c56.5,43.2,126.3,105.8,196.7,176.2c70.4,70.4,133,140.3,176.2,196.7C537.1,492.7,549.6,520.6,549.6,535.7z M20,25.2
	c0.5,5.8,6.3,28.6,58.3,95.3c42.4,54.4,102.3,120.9,168.7,187.2c66.3,66.3,132.8,126.2,187.2,168.7c66.7,52,89.6,57.8,95.3,58.3
	c-0.5-5.8-6.3-28.6-58.3-95.3C428.8,385,368.9,318.5,302.6,252.1c-66.3-66.3-132.8-126.2-187.2-168.7C48.7,31.5,25.8,25.7,20,25.2z"
	/>
<polygon id="XMLID_157_" class="st0" points="172.7,178 55.7,61 55.7,498 56.3,498 172.7,381.7 "/>
<polygon id="XMLID_174_" class="st0" points="376.7,178 376.7,382 492.7,498 492.7,61.6 376.6,178 "/>
<rect id="XMLID_9_" x="235.5" y="240.7" transform="matrix(-0.7071 -0.7071 0.7071 -0.7071 271.031 672.2647)" class="st0" width="78.6" height="78.6"/>
</svg>
