<?xml version="1.0" encoding="utf-8"?>
<!-- Generator: Adobe Illustrator 22.1.0, SVG Export Plug-In . SVG Version: 6.00 Build 0)  -->
<svg version="1.1" id="Calque_1" xmlns="http://www.w3.org/2000/svg" xmlns:xlink="http://www.w3.org/1999/xlink" x="0px" y="0px"
	 viewBox="0 0 465 465" style="enable-background:new 0 0 465 465;" xml:space="preserve">
<style type="text/css">
	.st0{fill:#011526;}
	.st1{fill:#BFE5F7;}
	.st2{fill:#BFE5F7;}
</style>
<circle class="st0" cx="232.5" cy="232.5" r="232.5"/>
<g>
	<path class="st1" d="M191.2,195.6c6.7,4.2,12,10.3,15.9,18.3c3.9,7.9,5.8,17.3,5.8,28.1c0,10.7-1.9,20-5.8,28
		c-3.9,8-9.2,14.1-15.9,18.4c-6.7,4.2-14.3,6.4-22.8,6.4c-7.9,0-14.6-1.8-20.3-5.3c-5.7-3.6-9.8-8.4-12.4-14.6v67.7h-31.5v-152h31.5
		v18.6c2.6-6.1,6.7-11,12.4-14.6c5.7-3.6,12.4-5.3,20.3-5.3C176.9,189.2,184.5,191.3,191.2,195.6z M141.9,223.6
		c-4.2,4.5-6.4,10.6-6.4,18.4c0,7.6,2.1,13.7,6.4,18.3c4.2,4.6,9.7,6.8,16.3,6.8c6.8,0,12.2-2.2,16.3-6.6c4.1-4.4,6.2-10.6,6.2-18.4
		c0-7.9-2.1-14-6.2-18.4c-4.1-4.4-9.6-6.6-16.3-6.6C151.6,216.9,146.2,219.1,141.9,223.6z"/>
	<g>
		<path class="st2" d="M360.8,184.1h-31.9v32.5h-30.4v-32.5h-31.9v-29h31.9v-32.6h30.4v32.6h31.9V184.1z"/>
		<path class="st1" d="M266.6,262h94.2v31.5h-94.2V262z"/>
	</g>
</g>
</svg>
