<?xml version="1.0" encoding="utf-8"?>
<!-- Generator: Adobe Illustrator 22.1.0, SVG Export Plug-In . SVG Version: 6.00 Build 0)  -->
<svg version="1.1" id="Calque_1" xmlns="http://www.w3.org/2000/svg" xmlns:xlink="http://www.w3.org/1999/xlink" x="0px" y="0px"
	 viewBox="0 0 919.4 172.4" style="enable-background:new 0 0 919.4 172.4;" xml:space="preserve">
<style type="text/css">
	.st0{fill:#FFFFFF;}
	.st1{fill:#F4AFCF;}
</style>
<g>
	<path class="st0" d="M0,30.5h27.3v18.3h0.9c2-6.4,5.8-11.5,11.3-15.3c5.5-3.8,12-5.7,19.4-5.7c14.2,0,25.1,5,32.5,15
		c7.5,10,11.2,24.4,11.2,43c0,18.8-3.7,33.2-11.2,43.3c-7.5,10.1-18.3,15.1-32.5,15.1c-7.4,0-13.8-1.9-19.3-5.8
		c-5.5-3.8-9.3-9-11.4-15.4h-0.9v49.1H0V30.5z M50.1,121.8c7.1,0,12.9-2.3,17.3-7c4.4-4.7,6.6-11,6.6-19V76.6c0-8-2.2-14.3-6.6-19.1
		c-4.4-4.8-10.2-7.1-17.3-7.1c-6.5,0-12,1.6-16.3,4.9c-4.3,3.3-6.5,7.6-6.5,13v35.4c0,5.8,2.2,10.3,6.5,13.4
		C38.1,120.2,43.6,121.8,50.1,121.8z"/>
	<path class="st0" d="M172.1,144.4c-8,0-15.1-1.4-21.4-4.1c-6.3-2.7-11.7-6.6-16.2-11.7c-4.5-5.1-7.9-11.3-10.3-18.5
		c-2.4-7.2-3.6-15.3-3.6-24.2c0-9,1.2-17,3.6-24.1c2.4-7.1,5.9-13.2,10.3-18.2c4.5-5,9.9-8.9,16.2-11.6c6.3-2.7,13.5-4.1,21.4-4.1
		c8,0,15.1,1.4,21.5,4.1c6.4,2.7,11.8,6.6,16.3,11.6c4.5,5,7.9,11.1,10.3,18.2C222.8,69,224,77,224,86c0,9-1.2,17-3.6,24.2
		c-2.4,7.2-5.9,13.3-10.3,18.5c-4.5,5.1-9.9,9-16.3,11.7C187.3,143.1,180.1,144.4,172.1,144.4z M172.1,122.4
		c7.3,0,12.9-2.2,17.1-6.6c4.1-4.4,6.2-10.9,6.2-19.4V75.7c0-8.4-2.1-14.8-6.2-19.2c-4.1-4.4-9.8-6.6-17.1-6.6
		c-7.1,0-12.7,2.2-16.9,6.6c-4.1,4.4-6.2,10.8-6.2,19.2v20.7c0,8.5,2.1,15,6.2,19.4C159.4,120.2,165,122.4,172.1,122.4z"/>
	<path class="st0" d="M284.6,144.4c-10.7,0-19.6-1.8-26.9-5.4c-7.3-3.6-13.7-8.6-19.2-15l16.6-16.2c4.1,4.7,8.6,8.4,13.5,11.1
		c4.9,2.7,10.6,4.1,17,4.1c6.5,0,11.3-1.1,14.2-3.4c2.9-2.3,4.4-5.4,4.4-9.4c0-3.3-1-5.9-3.1-7.8c-2.1-1.9-5.6-3.2-10.6-3.9
		l-11.1-1.5c-12.1-1.6-21.3-5-27.6-10.3c-6.3-5.3-9.5-13.1-9.5-23.4c0-5.4,1-10.3,3-14.6c2-4.3,4.8-8,8.5-11.1
		c3.7-3.1,8.1-5.4,13.3-7c5.2-1.6,11-2.5,17.4-2.5c5.4,0,10.2,0.4,14.4,1.2c4.2,0.8,8,1.9,11.4,3.4c3.4,1.5,6.5,3.3,9.4,5.5
		c2.8,2.2,5.6,4.7,8.3,7.4l-16,16c-3.3-3.4-7.2-6.3-11.7-8.5c-4.6-2.3-9.5-3.4-14.9-3.4c-6,0-10.3,1.1-12.9,3.2
		c-2.6,2.1-3.9,4.9-3.9,8.3c0,3.7,1.1,6.5,3.3,8.4c2.2,1.9,5.9,3.3,11.2,4.2l11.3,1.5c24,3.4,36.1,14.4,36.1,32.9
		c0,5.4-1.1,10.3-3.3,14.8c-2.2,4.5-5.3,8.3-9.3,11.5c-4,3.2-8.8,5.7-14.4,7.5C297.8,143.5,291.5,144.4,284.6,144.4z"/>
	<path class="st0" d="M354.5,30.5h27.3v111.4h-27.3V30.5z"/>
	<path class="st0" d="M448.2,141.9c-9.4,0-16.5-2.4-21.4-7.3c-4.9-4.9-7.4-11.9-7.4-21V52.5h-16.4v-22h8.5c4.1,0,6.9-1,8.4-2.9
		c1.5-1.9,2.2-4.8,2.2-8.6V0h24.5v30.5h22.8v22h-22.8v67.4h21.1v22H448.2z"/>
	<path class="st0" d="M493.2,141.9V30.5h27.3v23h1.1c0.7-3,1.8-5.9,3.3-8.6c1.5-2.8,3.4-5.2,5.9-7.4c2.4-2.1,5.3-3.8,8.6-5.1
		c3.3-1.3,7.2-1.9,11.6-1.9h6v25.8h-8.5c-9.2,0-16.2,1.4-20.9,4.1c-4.7,2.7-7,7.1-7,13.2v68.3H493.2z"/>
	<path class="st0" d="M620.1,144.4c-8,0-15.1-1.4-21.4-4.1c-6.3-2.7-11.7-6.6-16.2-11.7c-4.5-5.1-7.9-11.3-10.3-18.5
		c-2.4-7.2-3.6-15.3-3.6-24.2c0-9,1.2-17,3.6-24.1c2.4-7.1,5.9-13.2,10.3-18.2c4.5-5,9.9-8.9,16.2-11.6c6.3-2.7,13.5-4.1,21.4-4.1
		c8,0,15.1,1.4,21.5,4.1c6.4,2.7,11.8,6.6,16.3,11.6c4.5,5,7.9,11.1,10.3,18.2c2.4,7.1,3.6,15.1,3.6,24.1c0,9-1.2,17-3.6,24.2
		c-2.4,7.2-5.9,13.3-10.3,18.5c-4.5,5.1-9.9,9-16.3,11.7C635.2,143.1,628.1,144.4,620.1,144.4z M620.1,122.4
		c7.3,0,12.9-2.2,17.1-6.6c4.1-4.4,6.2-10.9,6.2-19.4V75.7c0-8.4-2.1-14.8-6.2-19.2c-4.1-4.4-9.8-6.6-17.1-6.6
		c-7.1,0-12.7,2.2-16.9,6.6c-4.1,4.4-6.2,10.8-6.2,19.2v20.7c0,8.5,2.1,15,6.2,19.4C607.4,120.2,613,122.4,620.1,122.4z"/>
	<path class="st0" d="M696,141.9V30.5h27.3v18.6h1.1c2.3-6,5.9-11,10.8-15c4.9-4.1,11.7-6.1,20.4-6.1c11.5,0,20.3,3.8,26.5,11.3
		c6.1,7.5,9.2,18.3,9.2,32.2v70.4h-27.3V74.2c0-8-1.4-13.9-4.3-17.9c-2.8-4-7.5-6-14.1-6c-2.8,0-5.6,0.4-8.2,1.2
		c-2.6,0.8-5,1.9-7,3.4c-2.1,1.5-3.7,3.3-5,5.5c-1.3,2.2-1.9,4.8-1.9,7.8v73.6H696z"/>
	<path class="st1" d="M857.7,104.7V67H820V45h37.8V7.7h23.9V45h37.8v22h-37.8v37.8H857.7z M820,141.9v-22h99.4v22H820z"/>
</g>
</svg>
