<?xml version="1.0" encoding="utf-8"?>
<!-- Generator: Adobe Illustrator 22.1.0, SVG Export Plug-In . SVG Version: 6.00 Build 0)  -->
<svg version="1.1" id="Calque_1" xmlns="http://www.w3.org/2000/svg" xmlns:xlink="http://www.w3.org/1999/xlink" x="0px" y="0px"
	 viewBox="0 0 465 465" style="enable-background:new 0 0 465 465;" xml:space="preserve">
<style type="text/css">
	.st0{fill:#0C1725;}
	.st1{fill:#F4AFCF;}
	.st2{fill:#FFFFFF;}
</style>
<circle class="st0" cx="232.5" cy="232.5" r="232.5"/>
<g>
	<path class="st1" d="M284.8,247.2v-37.8h-37.8v-22h37.8v-37.3h23.9v37.3h37.8v22h-37.8v37.8H284.8z M247.1,284.3v-22h99.4v22H247.1
		z"/>
	<path class="st2" d="M118.5,173h27.3v18.3h0.9c2-6.4,5.8-11.5,11.3-15.3c5.5-3.8,12-5.7,19.4-5.7c14.2,0,25.1,5,32.5,15
		c7.5,10,11.2,24.4,11.2,43c0,18.8-3.7,33.2-11.2,43.3c-7.5,10.1-18.3,15.1-32.5,15.1c-7.4,0-13.8-1.9-19.3-5.8
		c-5.5-3.8-9.3-9-11.4-15.4h-0.9v49.1h-27.3V173z M168.7,264.3c7.1,0,12.9-2.3,17.3-7c4.4-4.7,6.6-11,6.6-19v-19.2
		c0-8-2.2-14.3-6.6-19.1c-4.4-4.8-10.2-7.1-17.3-7.1c-6.5,0-12,1.6-16.3,4.9c-4.3,3.3-6.5,7.6-6.5,13v35.4c0,5.8,2.2,10.3,6.5,13.4
		C156.7,262.7,162.1,264.3,168.7,264.3z"/>
</g>
</svg>
